<svg aria-hidden="true" style="position: absolute; width: 0; height: 0; overflow: hidden;" version="1.1"
     xmlns="http://www.w3.org/2000/svg" xmlns:xlink="http://www.w3.org/1999/xlink">
    <defs>
        <symbol id="icon-chevron-right" viewBox="0 0 24 24">
            <path d="M10.996 5.419c0.502 0.49 5.402 5.634 5.402 5.634 0.268 0.263 0.402 0.605 0.402 0.947s-0.134 0.684-0.402 0.944c0 0-4.901 5.147-5.402 5.634-0.502 0.49-1.404 0.523-1.938 0-0.535-0.521-0.577-1.249 0-1.889l4.496-4.69-4.496-4.69c-0.577-0.64-0.535-1.369 0-1.891 0.534-0.523 1.436-0.491 1.938 0z" />
        </symbol>
        <symbol id="icon-wine" viewBox="0 0 23 32">
            <path d="M22.802 7.661c0-2.253-0.687-5.534-1.999-7.444-0.093-0.136-0.247-0.217-0.412-0.217h-17.98c-0.165 0-0.319 0.081-0.412 0.217-1.312 1.912-1.999 5.192-1.999 7.444 0 5.932 4.73 12.529 11 12.869v8.47h-4.099c-1.141-0.075-2 0.784-2 1.925v0.575c0 0.276 0.224 0.5 0.5 0.5h12c0.276 0 0.5-0.224 0.5-0.5v-0.5c0-1.164-0.879-2.075-2-2h-3.901v-8.47c6.27-0.34 10.802-6.937 10.802-12.869zM16.901 31h-11v-0.075c0-0.589 0.411-1 1-1h9c0.571 0 1 0.462 1 1.075zM2.682 1h17.438c1.053 1.692 1.631 4.47 1.673 6.428-0.845-0.196-1.746-0.31-2.77-0.31-3.161 0-4.759 0.921-6.305 1.812-1.497 0.863-2.911 1.678-5.804 1.678s-4.305-0.817-5.801-1.68l-0.030-0.018c-0.050-0.419-0.083-0.837-0.083-1.249 0-1.963 0.588-4.902 1.682-6.661zM1.311 10.188c1.357 0.749 2.913 1.418 5.604 1.418 3.16 0 4.758-0.921 6.304-1.812 1.497-0.862 2.911-1.678 5.805-1.678 1.025 0 1.919 0.11 2.739 0.32-0.397 5.312-4.777 11.125-10.361 11.125-4.974 0.001-8.989-4.612-10.091-9.373z" />
        </symbol>
        <symbol id="icon-spoon-knife" viewBox="0 0 16 16">
            <path d="M3.5 0c-1.657 0-3 1.567-3 3.5 0 1.655 0.985 3.042 2.308 3.406l-0.497 8.096c-0.034 0.549 0.389 0.998 0.939 0.998h0.5c0.55 0 0.972-0.449 0.939-0.998l-0.497-8.096c1.323-0.365 2.308-1.751 2.308-3.406 0-1.933-1.343-3.5-3-3.5zM13.583 0l-0.833 5h-0.625l-0.417-5h-0.417l-0.417 5h-0.625l-0.833-5h-0.417v6.5c0 0.276 0.224 0.5 0.5 0.5h1.302l-0.491 8.002c-0.034 0.549 0.389 0.998 0.939 0.998h0.5c0.55 0 0.972-0.449 0.939-0.998l-0.491-8.002h1.302c0.276 0 0.5-0.224 0.5-0.5v-6.5h-0.417z" />
        </symbol>
        <symbol id="icon-empty-glass" viewBox="0 0 32 32">
            <rect x="0" y="0" width="3rem" height="3rem" fill="none" fill-opacity="0" />
            <path d="M 8.3007812 5 L 8 5.5996094 C 7.4 6.8996094 7 8.7 7 11 C 7 15.6 10.5 19.400391 15 19.900391 L 15 26 L 10 26 L 10 28 L 22 28 L 22 26 L 17 26 L 17 19.900391 C 21.5 19.400391 25 15.6 25 11 C 25 8.7 24.6 6.8996094 24 5.5996094 L 23.800781 5 L 8.3007812 5 z M 9.5996094 7 L 22.400391 7 C 22.800391 8.2 23 9.6 23 11 C 23 13.1 22.099219 14.899219 20.699219 16.199219 L 20.599609 16.300781 C 20.499609 16.400781 20.400781 16.5 20.300781 16.5 C 20.200781 16.6 20.099609 16.599219 20.099609 16.699219 C 19.999609 16.799219 19.900781 16.800391 19.800781 16.900391 C 19.700781 17.000391 19.6 16.999609 19.5 17.099609 C 19.4 17.099609 19.300781 17.199219 19.300781 17.199219 C 19.200781 17.299219 19.100391 17.300391 18.900391 17.400391 C 18.800391 17.400391 18.699219 17.5 18.699219 17.5 C 18.599219 17.6 18.400781 17.599609 18.300781 17.599609 C 18.200781 17.599609 18.199609 17.699219 18.099609 17.699219 C 17.999609 17.699219 17.799219 17.800781 17.699219 17.800781 C 17.599219 17.800781 17.6 17.800391 17.5 17.900391 L 16.900391 17.900391 L 16.699219 17.900391 L 16 17.900391 C 12.1 17.900391 9 14.800391 9 10.900391 L 9 9.8007812 L 9 9.4003906 L 9.5996094 7 z"/>
        </symbol>
        <symbol id="icon-full-glass" viewBox="0 0 32 32" xmlns="http://www.w3.org/2000/svg">
            <path d="M 8.1875 5 L 8.03125 5.78125 C 8.03125 5.78125 7 10.488281 7 13 C 7 17.617188 10.515625 21.429688 15 21.9375 L 15 26 L 10 26 L 10 28 L 22 28 L 22 26 L 17 26 L 17 21.9375 C 21.484375 21.429688 25 17.617188 25 13 C 25 10.484375 23.96875 5.78125 23.96875 5.78125 L 23.8125 5 Z M 9.84375 7 L 22.15625 7 C 22.25 7.488281 22.488281 8.71875 22.6875 10 L 11 10 L 11 12 L 22.9375 12 C 22.96875 12.347656 23 12.722656 23 13 C 23 16.878906 19.878906 20 16 20 C 12.121094 20 9 16.878906 9 13 C 9 11.3125 9.667969 7.90625 9.84375 7 Z"/>
        </symbol>

    </defs>
</svg>
